<?xml version="1.0" encoding="utf-8"?>
<!-- Generator: Adobe Illustrator 16.0.0, SVG Export Plug-In . SVG Version: 6.00 Build 0)  -->
<!DOCTYPE svg PUBLIC "-//W3C//DTD SVG 1.1//EN" "http://www.w3.org/Graphics/SVG/1.1/DTD/svg11.dtd">
<svg version="1.1" id="Layer_1" xmlns="http://www.w3.org/2000/svg" xmlns:xlink="http://www.w3.org/1999/xlink" x="0px" y="0px"
	 width="590px" height="64px" viewBox="0 0 590 64" enable-background="new 0 0 590 64" xml:space="preserve">
<g id="Layer_2">
	<g>
		<g>
			<g>
				<path fill="#9C9C9C" d="M40.133,9.146c0.84,0.374,1.587,0.84,2.24,1.494c0.653,0.56,1.12,1.307,1.493,2.146
					s0.56,1.68,0.56,2.613v33.973c0,0.28-0.093,0.561-0.374,0.747c-0.187,0.187-0.466,0.28-0.84,0.28h-8.307
					c-0.28,0-0.56-0.094-0.747-0.28s-0.28-0.467-0.28-0.747V18.48h-6.813v30.893c0,0.28-0.093,0.561-0.28,0.747
					C26.6,50.307,26.32,50.4,26.04,50.4h-7.56c-0.28,0-0.56-0.094-0.84-0.28c-0.187-0.187-0.374-0.467-0.374-0.747V18.48h-6.72
					v30.893c0,0.747-0.374,1.12-1.12,1.12H1.12c-0.747,0-1.12-0.373-1.12-1.12V9.707c0-0.747,0.374-1.12,1.12-1.12h36.213
					C38.36,8.587,39.2,8.773,40.133,9.146z"/>
			</g>
			<g>
				<path fill="#9C9C9C" d="M80.827,40.32c0.374,0,0.653,0.093,0.84,0.373c0.187,0.187,0.28,0.467,0.28,0.84v7.934
					c0,0.279-0.093,0.561-0.28,0.84c-0.187,0.187-0.466,0.373-0.84,0.373h-28.56c-0.84,0-1.213-0.373-1.213-1.119V9.987
					c0-0.747,0.374-1.12,1.213-1.12h8.773c0.84,0,1.213,0.374,1.213,1.12V39.2c0,0.28,0.093,0.56,0.374,0.747
					c0.187,0.186,0.56,0.279,0.84,0.279h17.36V40.32z"/>
			</g>
			<g>
				<path fill="#9C9C9C" d="M124.787,8.587c0.374,0,0.653,0.093,0.84,0.373C125.907,9.146,126,9.427,126,9.8v39.667
					c0,0.279-0.093,0.561-0.373,0.84c-0.28,0.187-0.56,0.373-0.84,0.373h-8.867c-0.373,0-0.653-0.093-0.84-0.373
					c-0.28-0.187-0.374-0.467-0.374-0.84V35.653c0-0.28-0.093-0.56-0.28-0.747c-0.187-0.186-0.467-0.279-0.84-0.279H101.08
					c-0.374,0-0.653,0.094-0.84,0.279c-0.28,0.188-0.374,0.467-0.374,0.747v13.813c0,0.746-0.373,1.12-1.213,1.12h-8.867
					c-0.84,0-1.213-0.374-1.213-1.12V9.707c0-0.747,0.374-1.12,1.213-1.12h8.867c0.84,0,1.213,0.373,1.213,1.12v13.44
					c0,0.747,0.374,1.12,1.213,1.12h12.507c0.373,0,0.653-0.093,0.84-0.373c0.187-0.187,0.28-0.467,0.28-0.84V9.613
					c0-0.28,0.094-0.56,0.374-0.84c0.28-0.187,0.56-0.374,0.84-0.374h8.867V8.587z"/>
			</g>
		</g>
	</g>
	<line fill="none" stroke="#9C9C9C" stroke-miterlimit="10" x1="142.8" y1="0" x2="142.8" y2="58.8"/>
	<g display="none">
		<path display="inline" fill="#353535" d="M182.467,36.867c0,3.173-1.12,5.693-3.454,7.467c-2.333,1.772-5.506,2.706-9.426,2.706
			c-4.293,0-7.653-0.56-9.987-1.681v-4.105c1.493,0.652,3.08,1.119,4.853,1.492c1.773,0.374,3.547,0.561,5.227,0.561
			c2.8,0,4.947-0.561,6.347-1.586c1.4-1.027,2.146-2.521,2.146-4.48c0-1.307-0.28-2.334-0.747-3.08
			c-0.467-0.84-1.307-1.587-2.52-2.24s-2.987-1.493-5.414-2.333c-3.36-1.213-5.787-2.614-7.28-4.293
			c-1.493-1.68-2.146-3.827-2.146-6.534c0-2.8,1.026-5.04,3.173-6.72c2.146-1.68,4.853-2.52,8.4-2.52c3.64,0,6.907,0.653,9.987,1.96
			l-1.307,3.64c-2.987-1.307-5.88-1.867-8.773-1.867c-2.24,0-4.014,0.467-5.227,1.4c-1.307,0.934-1.867,2.333-1.867,4.013
			c0,1.307,0.187,2.333,0.653,3.08c0.466,0.84,1.213,1.587,2.333,2.24c1.12,0.653,2.8,1.4,5.04,2.24c3.827,1.4,6.44,2.8,7.84,4.387
			C181.813,32.387,182.467,34.347,182.467,36.867z"/>
		<path display="inline" fill="#353535" d="M198.146,43.68c0.747,0,1.4-0.093,2.146-0.187c0.653-0.093,1.214-0.187,1.587-0.373
			v3.173c-0.467,0.188-1.12,0.373-1.96,0.561c-0.84,0.187-1.68,0.187-2.333,0.187c-5.32,0-7.934-2.8-7.934-8.307v-16.24h-3.92v-1.96
			l3.92-1.68l1.773-5.787h2.427v6.347h7.934v3.174h-7.934v16.054c0,1.68,0.373,2.893,1.213,3.826
			C195.72,43.213,196.747,43.68,198.146,43.68z"/>
		<path display="inline" fill="#353535" d="M203,19.32h4.387l5.974,15.586c1.307,3.547,2.146,6.16,2.427,7.654h0.187
			c0.187-0.84,0.653-2.334,1.399-4.387c0.747-2.054,2.987-8.307,6.721-18.947h4.387l-11.761,31.08
			c-1.119,3.08-2.52,5.227-4.106,6.533s-3.453,1.96-5.693,1.96c-1.307,0-2.52-0.187-3.733-0.466v-3.268
			c0.934,0.188,1.96,0.28,3.08,0.28c2.8,0,4.854-1.587,6.066-4.76l1.494-3.921L203,19.32z"/>
		<path display="inline" fill="#353535" d="M237.16,46.573h-4.106V7.84h4.106V46.573z"/>
		<path display="inline" fill="#353535" d="M257.413,47.04c-4.013,0-7.187-1.214-9.52-3.64c-2.334-2.428-3.453-5.881-3.453-10.268
			c0-4.386,1.119-7.933,3.267-10.453c2.146-2.52,5.04-3.92,8.68-3.92c3.453,0,6.16,1.12,8.12,3.36
			c1.96,2.24,2.986,5.227,2.986,8.867V33.6h-18.76c0.094,3.174,0.934,5.601,2.427,7.28c1.493,1.681,3.733,2.521,6.439,2.521
			c2.894,0,5.88-0.654,8.681-1.867v3.641c-1.493,0.652-2.801,1.119-4.107,1.399S259.28,47.04,257.413,47.04z M256.293,22.213
			c-2.146,0-3.92,0.747-5.227,2.146s-2.053,3.36-2.333,5.88h14.28c0-2.614-0.561-4.574-1.773-5.974
			C260.12,22.96,258.44,22.213,256.293,22.213z"/>
		<path display="inline" fill="#353535" d="M304.36,27.533h12.413v17.733c-1.96,0.653-3.92,1.12-5.88,1.399
			c-1.96,0.281-4.293,0.467-6.907,0.467c-5.506,0-9.8-1.68-12.88-4.946s-4.573-7.84-4.573-13.813c0-3.827,0.747-7.094,2.24-9.987
			c1.493-2.8,3.733-5.04,6.533-6.533c2.894-1.494,6.16-2.24,9.987-2.24c3.92,0,7.466,0.747,10.826,2.146l-1.68,3.733
			c-3.267-1.4-6.44-2.053-9.521-2.053c-4.387,0-7.934,1.307-10.36,3.92c-2.52,2.613-3.732,6.253-3.732,11.014
			c0,4.947,1.213,8.679,3.64,11.2s5.88,3.827,10.547,3.827c2.52,0,4.946-0.28,7.373-0.84V31.36h-8.12v-3.827H304.36z"/>
		<path display="inline" fill="#353535" d="M328.72,19.32v17.733c0,2.24,0.467,3.92,1.494,4.947c1.026,1.027,2.613,1.68,4.76,1.68
			c2.894,0,4.946-0.746,6.253-2.333s1.96-4.106,1.96-7.653V19.32h4.107v27.253h-3.454l-0.56-3.64h-0.187
			c-0.841,1.307-2.054,2.333-3.547,3.08c-1.493,0.746-3.174,1.026-5.134,1.026c-3.359,0-5.786-0.747-7.467-2.333
			c-1.68-1.587-2.52-4.107-2.52-7.561V19.32H328.72z"/>
		<path display="inline" fill="#353535" d="M355.787,11.854c0-0.934,0.187-1.68,0.653-2.054c0.467-0.466,1.026-0.653,1.773-0.653
			c0.653,0,1.213,0.187,1.68,0.653c0.467,0.467,0.746,1.12,0.746,2.054c0,0.933-0.279,1.586-0.746,2.053s-1.026,0.653-1.68,0.653
			c-0.654,0-1.307-0.187-1.773-0.653C356.066,13.533,355.787,12.787,355.787,11.854z M360.267,46.573h-4.106V19.32h4.106V46.573z"/>
		<path display="inline" fill="#353535" d="M387.613,42.934h-0.28c-1.866,2.8-4.76,4.199-8.586,4.199
			c-3.547,0-6.347-1.213-8.307-3.64s-2.987-5.88-2.987-10.36c0-4.479,1.026-8.026,2.987-10.453c1.96-2.52,4.76-3.733,8.307-3.733
			c3.733,0,6.533,1.307,8.493,4.013h0.28L387.333,21l-0.093-1.96V7.934h4.106v38.732h-3.36L387.613,42.934z M379.307,43.587
			c2.8,0,4.854-0.747,6.16-2.333c1.307-1.494,1.866-4.014,1.866-7.467v-0.84c0-3.827-0.653-6.627-1.96-8.307
			c-1.307-1.68-3.359-2.52-6.159-2.52c-2.427,0-4.294,0.933-5.601,2.8s-1.96,4.573-1.96,7.934c0,3.453,0.653,6.16,1.96,7.934
			C375.014,42.746,376.88,43.587,379.307,43.587z"/>
		<path display="inline" fill="#353535" d="M411.787,47.04c-4.014,0-7.187-1.214-9.521-3.64c-2.333-2.428-3.453-5.881-3.453-10.268
			c0-4.386,1.12-7.933,3.267-10.453c2.146-2.614,5.04-3.92,8.68-3.92c3.454,0,6.16,1.12,8.12,3.36
			c1.96,2.24,2.986,5.227,2.986,8.867V33.6h-18.76c0.094,3.174,0.934,5.601,2.427,7.28c1.493,1.681,3.733,2.521,6.44,2.521
			c2.893,0,5.88-0.654,8.68-1.867v3.641c-1.493,0.652-2.8,1.119-4.106,1.399C415.24,46.947,413.653,47.04,411.787,47.04z
			 M410.667,22.213c-2.146,0-3.92,0.747-5.227,2.146s-2.054,3.36-2.334,5.88h14.28c0-2.614-0.56-4.574-1.773-5.974
			C414.493,22.96,412.813,22.213,410.667,22.213z"/>
	</g>
	<g enable-background="new    ">
		<path fill="#9C9C9C" d="M157.604,29.226c0-6.646,1.636-11.798,4.908-15.457c3.272-3.658,7.92-5.487,13.944-5.487
			c5.856,0,10.43,1.862,13.721,5.585c3.291,3.724,4.936,8.862,4.936,15.415c0,6.517-1.65,11.641-4.95,15.374
			c-3.3,3.731-7.888,5.598-13.762,5.598c-6.005,0-10.639-1.833-13.902-5.5C159.235,41.085,157.604,35.91,157.604,29.226z
			 M162.624,29.282c0,5.531,1.175,9.725,3.527,12.583c2.352,2.859,5.768,4.288,10.249,4.288c4.518,0,7.929-1.425,10.234-4.273
			c2.305-2.85,3.458-7.049,3.458-12.598c0-5.494-1.148-9.661-3.444-12.5c-2.296-2.84-5.694-4.26-10.193-4.26
			c-4.518,0-7.953,1.43-10.305,4.288S162.624,23.825,162.624,29.282z"/>
		<path fill="#9C9C9C" d="M203.506,49.695V19.131h3.765l0.566,5.687h0.238c1.137-1.997,2.505-3.537,4.104-4.62
			c1.599-1.083,3.355-1.625,5.271-1.625c1.357,0,2.575,0.113,3.653,0.337l-0.642,4.32c-1.264-0.278-2.38-0.417-3.346-0.417
			c-2.474,0-4.588,1.003-6.345,3.009s-2.636,4.503-2.636,7.494v16.381H203.506z"/>
		<path fill="#9C9C9C" d="M223.111,54.826c0-1.854,0.59-3.457,1.77-4.81c1.18-1.354,2.839-2.271,4.978-2.753
			c-0.78-0.351-1.436-0.895-1.965-1.633c-0.53-0.737-0.794-1.595-0.794-2.573c0-1.115,0.297-2.092,0.892-2.928
			c0.595-0.837,1.534-1.646,2.817-2.427c-1.598-0.65-2.898-1.757-3.903-3.318s-1.507-3.346-1.507-5.354
			c0-3.347,1.007-5.926,3.022-7.739s4.87-2.719,8.565-2.719c1.595,0,3.032,0.186,4.312,0.558h10.586v2.928l-5.661,0.669
			c0.529,0.651,1.002,1.501,1.418,2.552c0.416,1.051,0.624,2.236,0.624,3.556c0,2.994-1.026,5.382-3.078,7.167
			c-2.053,1.785-4.87,2.678-8.451,2.678c-0.909,0-1.763-0.074-2.561-0.224c-1.966,1.042-2.949,2.353-2.949,3.933
			c0,0.837,0.343,1.455,1.029,1.854c0.687,0.4,1.864,0.6,3.534,0.6h5.398c3.289,0,5.816,0.692,7.581,2.077s2.647,3.397,2.647,6.038
			c0,3.401-1.352,5.995-4.053,7.78c-2.702,1.784-6.644,2.678-11.825,2.678c-3.977,0-7.042-0.749-9.196-2.246
			S223.111,57.559,223.111,54.826z M227.489,54.771c0,1.654,0.699,2.909,2.097,3.765s3.4,1.283,6.009,1.283
			c3.889,0,6.769-0.581,8.639-1.743s2.806-2.737,2.806-4.727c0-1.655-0.513-2.803-1.536-3.444c-1.024-0.642-2.951-0.962-5.781-0.962
			h-5.558c-2.104,0-3.742,0.502-4.915,1.506S227.489,52.893,227.489,54.771z M230.027,28.919c0,2.138,0.603,3.756,1.809,4.853
			s2.885,1.646,5.038,1.646c4.508,0,6.763-2.193,6.763-6.582c0-4.592-2.282-6.888-6.846-6.888c-2.171,0-3.841,0.585-5.01,1.757
			C230.611,24.875,230.027,26.614,230.027,28.919z"/>
		<path fill="#9C9C9C" d="M255.823,41.276c0-6.157,4.943-9.383,14.829-9.68l5.194-0.169v-1.919c0-2.427-0.515-4.22-1.545-5.377
			s-2.677-1.736-4.941-1.736c-2.542,0-5.419,0.791-8.629,2.371l-1.438-3.553c1.506-0.806,3.155-1.438,4.95-1.896
			c1.794-0.458,3.593-0.687,5.396-0.687c3.64,0,6.337,0.809,8.092,2.426c1.756,1.618,2.633,4.211,2.633,7.781v20.86h-3.43
			l-0.921-4.3h-0.223c-1.521,1.896-3.039,3.179-4.552,3.85c-1.512,0.672-3.4,1.008-5.664,1.008c-3.045,0-5.432-0.778-7.16-2.334
			C256.688,46.362,255.823,44.148,255.823,41.276z M260.731,41.332c0,1.682,0.506,2.961,1.518,3.839
			c1.011,0.878,2.426,1.317,4.244,1.317c2.877,0,5.136-0.794,6.778-2.382s2.464-3.812,2.464-6.67v-2.772l-4.621,0.195
			c-3.674,0.13-6.323,0.705-7.947,1.723C261.544,37.601,260.731,39.184,260.731,41.332z"/>
		<path fill="#9C9C9C" d="M289.874,49.695V19.131h3.765l0.753,4.129h0.224c0.948-1.488,2.276-2.642,3.987-3.46
			s3.616-1.227,5.717-1.227c3.682,0,6.451,0.888,8.311,2.664s2.789,4.615,2.789,8.52v19.939h-4.629V29.883
			c0-2.497-0.567-4.359-1.701-5.589c-1.135-1.23-2.91-1.845-5.327-1.845c-3.197,0-5.54,0.866-7.027,2.599
			c-1.487,1.733-2.231,4.592-2.231,8.579v16.068H289.874z"/>
		<path fill="#9C9C9C" d="M324.538,10.848c0-1.06,0.24-1.836,0.72-2.329c0.48-0.492,1.08-0.739,1.801-0.739
			c0.802,0,1.492,0.251,2.073,0.753c0.582,0.502,0.872,1.273,0.872,2.314c0,1.042-0.29,1.817-0.872,2.329
			c-0.581,0.512-1.271,0.767-2.073,0.767c-0.721,0-1.32-0.255-1.801-0.767C324.778,12.666,324.538,11.89,324.538,10.848z
			 M324.929,49.695V19.131h4.239v30.564H324.929z"/>
		<path fill="#9C9C9C" d="M336.753,49.695v-3.151l16.677-23.816h-15.646v-3.597h20.721v3.597l-16.454,23.37h16.872v3.598H336.753z"
			/>
		<path fill="#9C9C9C" d="M364.389,34.664c0-4.927,1.209-8.84,3.628-11.741s5.667-4.351,9.745-4.351c3.816,0,6.837,1.26,9.06,3.779
			c2.224,2.52,3.335,5.843,3.335,9.97v2.928H369.13c0.093,3.589,1.001,6.312,2.724,8.171c1.723,1.859,4.148,2.789,7.277,2.789
			c3.28,0,6.523-0.688,9.729-2.063v4.127c-1.631,0.707-3.174,1.214-4.629,1.521s-3.211,0.46-5.269,0.46
			c-4.506,0-8.062-1.376-10.666-4.128C365.691,43.374,364.389,39.554,364.389,34.664z M369.241,31.485h16.007
			c0-2.918-0.651-5.154-1.955-6.707c-1.304-1.552-3.166-2.329-5.587-2.329c-2.459,0-4.419,0.8-5.881,2.398
			C370.363,26.447,369.502,28.659,369.241,31.485z"/>
		<path fill="#9C9C9C" d="M398.133,49.695V19.131h3.765l0.566,5.687h0.238c1.137-1.997,2.505-3.537,4.104-4.62
			c1.599-1.083,3.355-1.625,5.271-1.625c1.357,0,2.575,0.113,3.653,0.337l-0.642,4.32c-1.264-0.278-2.38-0.417-3.346-0.417
			c-2.474,0-4.588,1.003-6.345,3.009s-2.636,4.503-2.636,7.494v16.381H398.133z"/>
		<path fill="#9C9C9C" d="M434.861,29.31c0-4.239,0.851-7.952,2.552-11.141c1.7-3.188,4.15-5.624,7.348-7.307
			c3.197-1.682,6.944-2.523,11.239-2.523c4.35,0,8.403,0.799,12.158,2.398l-1.84,4.184c-3.682-1.562-7.224-2.343-10.626-2.343
			c-4.964,0-8.84,1.478-11.629,4.434c-2.788,2.956-4.183,7.056-4.183,12.298c0,5.521,1.343,9.709,4.029,12.563
			c2.687,2.854,6.633,4.28,11.839,4.28c2.825,0,5.586-0.326,8.282-0.979V32.572h-9.119v-4.239h13.86v19.856
			c-2.157,0.679-4.351,1.191-6.582,1.54c-2.23,0.349-4.815,0.523-7.753,0.523c-6.172,0-10.979-1.836-14.417-5.508
			C436.58,41.073,434.861,35.929,434.861,29.31z"/>
		<path fill="#9C9C9C" d="M477.528,39.126V19.131h4.741v19.827c0,2.492,0.566,4.351,1.698,5.578c1.132,1.227,2.904,1.84,5.317,1.84
			c3.192,0,5.525-0.873,7.001-2.621c1.476-1.747,2.214-4.602,2.214-8.562V19.131h4.629v30.564h-3.765l-0.715-4.1h-0.261
			c-0.946,1.506-2.26,2.659-3.939,3.458s-3.596,1.199-5.749,1.199c-3.733,0-6.528-0.883-8.386-2.649
			C478.457,45.838,477.528,43.012,477.528,39.126z"/>
		<path fill="#9C9C9C" d="M512.526,10.848c0-1.06,0.24-1.836,0.72-2.329c0.48-0.492,1.08-0.739,1.801-0.739
			c0.802,0,1.492,0.251,2.073,0.753c0.582,0.502,0.872,1.273,0.872,2.314c0,1.042-0.29,1.817-0.872,2.329
			c-0.581,0.512-1.271,0.767-2.073,0.767c-0.721,0-1.32-0.255-1.801-0.767C512.767,12.666,512.526,11.89,512.526,10.848z
			 M512.917,49.695V19.131h4.239v30.564H512.917z"/>
		<path fill="#9C9C9C" d="M525.662,34.496c0-5.038,1.111-8.951,3.335-11.74c2.224-2.789,5.317-4.183,9.283-4.183
			c4.152,0,7.336,1.506,9.553,4.518h0.362L548,20.888l-0.111-2.147V6.302h4.629v43.393h-3.765l-0.613-4.1h-0.251
			c-2.142,3.105-5.345,4.657-9.608,4.657c-3.984,0-7.083-1.366-9.297-4.1C526.769,43.42,525.662,39.535,525.662,34.496z
			 M530.403,34.552c0,3.904,0.717,6.852,2.15,8.841s3.538,2.983,6.312,2.983c3.165,0,5.461-0.859,6.886-2.579
			c1.424-1.72,2.137-4.494,2.137-8.324v-0.977c0-4.331-0.722-7.422-2.165-9.272c-1.443-1.85-3.748-2.775-6.913-2.775
			c-2.719,0-4.8,1.056-6.243,3.166C531.125,27.725,530.403,30.704,530.403,34.552z"/>
		<path fill="#9C9C9C" d="M560.661,34.664c0-4.927,1.209-8.84,3.628-11.741s5.667-4.351,9.745-4.351c3.816,0,6.837,1.26,9.06,3.779
			c2.224,2.52,3.335,5.843,3.335,9.97v2.928h-21.026c0.093,3.589,1.001,6.312,2.724,8.171c1.723,1.859,4.148,2.789,7.277,2.789
			c3.28,0,6.523-0.688,9.729-2.063v4.127c-1.631,0.707-3.174,1.214-4.629,1.521s-3.211,0.46-5.269,0.46
			c-4.506,0-8.062-1.376-10.666-4.128C561.964,43.374,560.661,39.554,560.661,34.664z M565.514,31.485h16.007
			c0-2.918-0.651-5.154-1.955-6.707c-1.304-1.552-3.166-2.329-5.587-2.329c-2.459,0-4.419,0.8-5.881,2.398
			C566.636,26.447,565.774,28.659,565.514,31.485z"/>
	</g>
</g>
</svg>
